# Blender 4.3.2
# www.blender.org
mtllib maybe_a_bite.mtl
o Plane
v -0.057995 0.527549 -0.259751
v 0.057995 0.546818 -0.280573
v -0.066536 3.657845 -0.494359
v 0.066536 3.639581 -0.512708
v -0.273654 2.951028 -0.113046
v -0.273654 2.092654 -0.085386
v -0.273654 1.217137 0.029560
v -0.022724 0.755017 -0.057937
v 0.000000 0.456633 -0.183122
v 0.022724 0.755017 -0.057937
v 0.273654 1.236407 0.008738
v 0.273654 2.089050 -0.108587
v 0.273654 2.932765 -0.131395
v 0.026070 3.419219 -0.261837
v 0.000000 3.725057 -0.426830
v -0.026070 3.419219 -0.261837
v -0.107225 1.295413 0.168782
v 0.000000 1.146221 0.106189
v 0.107225 1.295413 0.168782
v -0.107225 2.105919 0.000000
v 0.000000 2.105919 0.000000
v 0.107225 2.105919 0.000000
v -0.107225 2.865322 0.036980
v 0.000000 3.018241 -0.045517
v 0.107225 2.865322 0.036980
vn -0.5497 -0.4337 0.7139
vn 0.6447 -0.4241 0.6360
vn -0.5162 0.4951 0.6989
vn 0.6103 0.4797 0.6305
vn -0.5680 0.2402 0.7872
vn -0.5802 0.0671 0.8117
vn -0.5910 -0.1254 0.7969
vn -0.2743 -0.4282 0.8611
vn -0.0000 -0.3869 0.9221
vn 0.3344 -0.4328 0.8372
vn 0.6695 -0.1211 0.7329
vn 0.6419 0.0638 0.7642
vn 0.6472 0.2280 0.7274
vn 0.3079 0.5053 0.8061
vn -0.0000 0.4748 0.8801
vn -0.2520 0.5035 0.8264
vn -0.2183 -0.0574 0.9742
vn -0.0000 -0.1965 0.9805
vn 0.2810 -0.0633 0.9576
vn -0.1542 0.0786 0.9849
vn -0.0000 0.0799 0.9968
vn 0.2077 0.0778 0.9751
vn -0.2134 0.1977 0.9568
vn -0.0000 0.3221 0.9467
vn 0.2740 0.2008 0.9405
vt 0.250000 0.250000
vt 0.500000 0.250000
vt 0.500000 0.500000
vt 0.250000 0.500000
vt 0.750000 0.250000
vt 0.750000 0.500000
vt 0.500000 0.750000
vt 0.250000 0.750000
vt 0.750000 0.750000
vt 0.000000 0.000000
vt 0.250000 0.000000
vt 0.000000 0.250000
vt 0.500000 0.000000
vt 0.750000 0.000000
vt 1.000000 0.000000
vt 1.000000 0.250000
vt 1.000000 0.500000
vt 1.000000 0.750000
vt 1.000000 1.000000
vt 0.750000 1.000000
vt 0.500000 1.000000
vt 0.250000 1.000000
vt 0.000000 0.750000
vt 0.000000 1.000000
vt 0.000000 0.500000
s 1
f 17/1/17 18/2/18 21/3/21 20/4/20
f 18/2/18 19/5/19 22/6/22 21/3/21
f 20/4/20 21/3/21 24/7/24 23/8/23
f 21/3/21 22/6/22 25/9/25 24/7/24
f 1/10/1 8/11/8 17/1/17 7/12/7
f 8/11/8 9/13/9 18/2/18 17/1/17
f 9/13/9 10/14/10 19/5/19 18/2/18
f 10/14/10 2/15/2 11/16/11 19/5/19
f 19/5/19 11/16/11 12/17/12 22/6/22
f 22/6/22 12/17/12 13/18/13 25/9/25
f 25/9/25 13/18/13 4/19/4 14/20/14
f 24/7/24 25/9/25 14/20/14 15/21/15
f 23/8/23 24/7/24 15/21/15 16/22/16
f 5/23/5 23/8/23 16/22/16 3/24/3
f 6/25/6 20/4/20 23/8/23 5/23/5
f 7/12/7 17/1/17 20/4/20 6/25/6
