# Apple ModelIO OBJ File: Door
mtllib Door.mtl
g CBRetopo_CBMaterial
v 0.646097 0.827845 0.550624
v -0.623088 0.804816 0.543509
v -0.615726 -0.826145 0.552464
v 0.643499 -0.828798 0.54819
v -0.61981 -0.830878 -0.547805
v -0.611819 0.823804 -0.542555
v 0.644755 0.810734 -0.553927
v 0.636093 -0.824925 -0.558915
vn 0.575364 0.58116 0.575508
vn -0.583863 0.571997 0.576127
vn -0.577118 -0.576517 0.578414
vn 0.577798 -0.578057 0.576195
vn -0.579059 -0.577407 -0.57558
vn -0.576023 0.582806 -0.573179
vn 0.576731 0.574257 -0.581042
vn 0.572796 -0.576423 -0.582787
vt 0.437833 0.572331
vt 0.441238 0.93615
vt 0.0635018 0.931837
vt 0.0607981 0.569556
vt 0.0656306 0.31315
vt 0.0645178 0.126241
vt 0.374271 0.125836
vt 0.374317 0.310731
vt 0.50311 0.569711
vt 0.874747 0.566986
vt 0.501798 0.932475
vt 0.875804 0.937772
vt 0.0657639 0.533505
vt 0.065296 0.355063
vt 0.370858 0.351244
vt 0.377313 0.531466
vt 0.98375 0.268437
vt 0.981384 0.451944
vt 0.739935 0.26915
vt 0.737373 0.452279
vt 0.710612 0.272788
vt 0.71272 0.459152
vt 0.485569 0.269971
vt 0.485862 0.460459
usemtl CBMaterial
f 1/1/1 2/2/2 3/3/3
f 1/1/1 3/3/3 4/4/4
f 5/5/5 3/6/3 2/7/2
f 5/5/5 2/7/2 6/8/6
f 7/9/7 8/10/8 6/11/6
f 8/10/8 5/12/5 6/11/6
f 4/13/4 8/14/8 7/15/7
f 4/13/4 7/15/7 1/16/1
f 7/17/7 6/18/6 1/19/1
f 6/18/6 2/20/2 1/19/1
f 3/21/3 5/22/5 4/23/4
f 5/22/5 8/24/8 4/23/4
s off
